<?xml version="1.0" standalone="no"?>
<!DOCTYPE svg PUBLIC "-//W3C//DTD SVG 20010904//EN"
 "http://www.w3.org/TR/2001/REC-SVG-20010904/DTD/svg10.dtd">
<svg version="1.0" xmlns="http://www.w3.org/2000/svg"
 width="300.000000pt" height="404.000000pt" viewBox="0 0 300.000000 404.000000"
 preserveAspectRatio="xMidYMid meet">
<metadata>
Created by potrace 1.10, written by Peter Selinger 2001-2011
</metadata>
<g transform="translate(0.000000,404.000000) scale(0.100000,-0.100000)"
fill="#000000" stroke="none">
<path d="M2323 3948 c-44 -51 -358 -412 -697 -803 -340 -390 -653 -750 -696
-800 -320 -370 -448 -516 -488 -557 -26 -27 -42 -48 -37 -48 6 0 227 0 493 0
l483 0 -25 -48 c-14 -27 -91 -197 -171 -378 -81 -181 -158 -354 -172 -384 -14
-30 -42 -93 -63 -140 -95 -217 -303 -676 -326 -721 -36 -73 -26 -77 27 -11 42
51 350 408 973 1122 123 140 301 345 396 455 323 373 423 488 517 593 l64 72
-492 0 c-392 0 -489 3 -481 13 5 6 85 181 177 387 303 679 567 1264 586 1303
11 20 17 37 15 37 -2 0 -40 -42 -83 -92z m-69 -155 c-7 -21 -12 -32 -99 -228
-74 -168 -79 -179 -129 -288 -20 -42 -36 -79 -36 -81 0 -2 -20 -46 -44 -98
-24 -52 -66 -145 -94 -208 -50 -113 -169 -380 -211 -472 -41 -91 -43 -99 -26
-124 l15 -24 428 0 c235 0 433 -4 441 -9 15 -9 11 -15 -72 -106 -26 -29 -61
-70 -77 -90 -16 -20 -51 -61 -77 -89 -27 -29 -68 -77 -93 -107 -39 -47 -125
-144 -140 -159 -3 -3 -18 -21 -34 -40 -16 -19 -54 -64 -86 -100 -72 -83 -214
-246 -248 -285 -14 -16 -44 -50 -66 -75 -23 -25 -66 -74 -96 -109 -30 -35 -59
-69 -65 -75 -5 -6 -35 -41 -65 -76 -30 -36 -57 -67 -60 -70 -10 -10 -86 -96
-135 -154 -27 -33 -66 -78 -86 -100 -20 -23 -99 -113 -176 -201 -77 -88 -150
-169 -162 -179 -22 -20 -22 -20 -15 0 6 16 162 366 209 469 8 17 52 116 98
220 153 343 209 469 238 533 16 35 29 65 29 67 0 2 19 43 41 91 38 82 40 91
27 114 l-14 25 -437 3 c-377 2 -437 4 -437 17 0 13 80 115 135 171 11 11 43
47 70 80 28 32 70 81 95 109 25 28 68 77 95 109 28 32 59 68 70 80 11 12 43
49 70 81 58 68 197 228 205 235 3 3 48 55 100 115 52 61 97 112 100 115 3 3
29 34 59 70 30 36 61 72 70 80 9 8 54 60 100 115 47 55 89 105 95 110 6 6 38
42 71 80 33 39 62 72 65 75 3 3 34 39 70 80 35 41 67 77 70 80 3 3 32 37 65
75 61 72 147 165 152 165 1 0 0 -8 -3 -17z"/>
<path d="M1315 3513 c-16 -2 -75 -13 -130 -24 -499 -103 -934 -487 -1100 -971
-38 -109 -43 -128 -54 -193 -19 -106 -22 -146 -12 -163 11 -19 15 -6 26 81 29
225 171 543 321 717 62 73 195 198 253 238 80 56 193 123 198 118 2 -2 -11
-13 -29 -24 -18 -12 -46 -33 -63 -47 -16 -15 -56 -49 -88 -77 -66 -57 -174
-185 -229 -268 -86 -133 -155 -293 -195 -460 -22 -90 -26 -132 -29 -290 -3
-163 0 -198 20 -295 61 -287 190 -530 391 -731 53 -53 191 -164 238 -192 23
-14 27 -21 21 -45 -8 -37 -52 -135 -64 -142 -19 -12 -135 63 -255 165 -82 70
-89 77 -165 170 -25 30 -47 57 -50 60 -3 3 -18 25 -35 49 -116 170 -216 424
-240 611 -11 79 -15 94 -26 83 -17 -17 17 -226 53 -328 10 -31 12 -36 48 -125
73 -183 227 -395 390 -537 68 -58 273 -203 290 -203 3 0 14 19 25 43 10 23 33
75 51 115 l33 73 -45 27 c-121 71 -277 212 -367 330 -190 250 -287 538 -287
854 0 528 305 1012 785 1243 166 80 331 121 541 134 l129 8 -160 0 c-88 0
-173 -2 -190 -4z"/>
<path d="M2144 3236 l-51 -114 92 -61 c112 -73 269 -225 347 -337 111 -157
193 -342 233 -524 22 -101 31 -364 16 -472 -47 -330 -217 -646 -459 -855 -247
-212 -515 -319 -857 -343 -126 -8 -124 -8 65 -5 166 3 211 7 301 28 360 85
685 304 897 603 103 143 200 360 236 524 21 96 30 190 18 190 -12 0 -18 -17
-27 -75 -12 -74 -48 -220 -56 -229 -5 -6 -9 -19 -9 -29 0 -34 -125 -280 -185
-362 -139 -192 -313 -348 -485 -435 -53 -26 -50 -22 14 24 92 65 231 202 302
299 146 195 230 390 270 627 16 99 18 337 3 430 -56 351 -231 661 -497 883
-44 37 -83 67 -87 67 -4 0 -25 14 -46 31 -32 25 -38 35 -33 56 9 34 62 143 70
143 18 0 128 -71 204 -131 272 -216 463 -534 525 -874 21 -115 24 -127 36
-119 22 13 -13 196 -67 349 -115 321 -341 598 -636 781 -40 24 -75 44 -78 44
-3 -1 -28 -52 -56 -114z"/>
</g>
</svg>
